inDegrees=yes
name=ik_lifting_orientations
DataType=double
version=3
OpenSimVersion=4.5-2024-01-10-34fd6af
endheader
time	pelvis_tilt	pelvis_list	pelvis_rotation	pelvis_tx	pelvis_ty	pelvis_tz	hip_flexion_r	hip_adduction_r	hip_rotation_r	knee_angle_r	knee_angle_r_beta	ankle_angle_r	subtalar_angle_r	mtp_angle_r	hip_flexion_l	hip_adduction_l	hip_rotation_l	knee_angle_l	knee_angle_l_beta	ankle_angle_l	subtalar_angle_l	mtp_angle_l	lumbar_extension	lumbar_bending	lumbar_rotation	arm_flex_r	arm_add_r	arm_rot_r	elbow_flex_r	pro_sup_r	wrist_flex_r	wrist_dev_r	arm_flex_l	arm_add_l	arm_rot_l	elbow_flex_l	pro_sup_l	wrist_flex_l	wrist_dev_l
4.48	-0.00242550310963552	0.0106957021992066	-175.6236355410753	0	0.9400000003403366	0	30.82069649751885	-9.65019982526997	0	41.76312059311966	0.7289039602573851	-4.930303452659783	0	0	30.82069649751885	-9.65019982526997	0	41.76312059311966	0.7289039602573851	-4.930303452659783	0	0	-0.004528422319513508	0.01758045532737356	-0.05321081961034526	2.160161299272981	1.194898032918708	-87.81539358374027	1.666537678456361	-24.94808082433204	0	0	0	-6.201629105419403	0	56.07750656165533	24.94787045715539	0	0
4.49	-0.005433287665800539	0.01354588975720645	-175.6171613583259	0	0.9400000003403366	0	30.82461238385379	-9.650526655840542	0	41.76730551641644	0.7289770009478573	-4.930388451818811	0	0	30.82461238385379	-9.650526655840542	0	41.76730551641644	0.7289770009478573	-4.930388451818811	0	0	-0.006706222616605756	0.02701597215752451	-0.08598553411553195	1.833592266051582	1.481341348879881	-88.5536109962069	2.127785325009256	-24.94308114683417	0	0	0	-6.202834241746274	0	56.08288766884265	24.94287077967893	0	0
4.5	-0.002123346629916502	0.006427213335919663	-175.5958217860606	0	0.9400000003403366	0	30.82736193038893	-9.650756026183421	0	41.77024366706563	0.7290282813506053	-4.930448088723879	0	0	30.82736193038893	-9.650756026183421	0	41.77024366706563	0.7290282813506053	-4.930448088723879	0	0	-0.006028573736753361	0.0207504066860572	-0.2223307654902936	1.786685682796476	1.536038412433805	-89.31026086972119	2.306957524141893	-24.9395705471341	0	0	0	-6.203680456491213	0	56.08666596169984	24.93936017999389	0	0
4.51	-0.006249113234515766	0.0008528958081384577	-175.6041952582128	0	0.9400000003403366	0	30.82953947817998	-9.650937372456285	0	41.77257282791189	0.729068932876181	-4.930495218084204	0	0	30.82953947817998	-9.650937372456285	0	41.77257282791189	0.729068932876181	-4.930495218084204	0	0	-0.008428972369045383	0.03137956912126651	-0.4565662296844997	1.714858034229017	1.594013457706676	-89.71889101968371	2.44651179474061	-24.93678927014085	0	0	0	-6.204351266406079	0	56.08965799123217	24.93657890301256	0	0
4.52	-0.003332500522732404	0.005873489221501582	-175.6237013984134	0	0.9400000003403366	0	30.83308900416487	-9.651233158664791	0	41.7763669050696	0.729135152014658	-4.930572092673772	0	0	30.83308900416487	-9.651233158664791	0	41.7763669050696	0.729135152014658	-4.930572092673772	0	0	-0.002999896476119203	0.03522052868383919	-0.7292866313665639	1.639776420227134	1.686725318238093	-89.83721067745023	2.670994237240496	-24.93225651473941	0	0	0	-6.205444167746746	0	56.09453532578858	24.93204614763054	0	0
4.53	-0.003353120333940673	0.01100241833240771	-175.6194011489729	0	0.9400000003403366	0	30.83720496563479	-9.651575967682536	0	41.78076622517025	0.7292119346352635	-4.930661165666222	0	0	30.83720496563479	-9.651575967682536	0	41.78076622517025	0.7292119346352635	-4.930661165666222	0	0	-0.005960866703537149	0.04870946002219875	-1.067063596495292	1.413827176945185	1.979313744769091	-89.88781909604123	3.111381947393858	-24.92700021976685	0	0	0	-6.20671159297348	0	56.10019087060177	24.9267898526805	0	0
4.54	-0.003057761657514646	0.003250309878875124	-175.6172440868214	0	0.9400000003403366	0	30.84056875371213	-9.651855870131302	0	41.78436245236865	0.7292747006405251	-4.930733868496192	0	0	30.84056875371213	-9.651855870131302	0	41.78436245236865	0.7292747006405251	-4.930733868496192	0	0	-0.004972917493120637	0.04720710451819377	-1.472744371369836	1.301978602332532	2.049378609072174	-89.91857115875352	3.27818901617756	-24.92270391135867	0	0	0	-6.207747758440319	0	56.10481270271372	24.92249354429072	0	0
4.55	-0.001168979026606327	0.007614287206020748	-175.6162854186308	0	0.9400000003403366	0	30.84452225701909	-9.652184747889264	0	41.78858828469293	0.7293484553282212	-4.930819275137488	0	0	30.84452225701909	-9.652184747889264	0	41.78858828469293	0.7293484553282212	-4.930819275137488	0	0	-0.003347720094540329	0.05472863913385281	-1.889443690287938	1.266589793724664	2.149469690046684	-89.93663721159707	3.598789091390913	-24.91765447721101	0	0	0	-6.208965526047763	0	56.11024474778173	24.91744411016468	0	0
4.56	-0.003127431015714946	0.01343743645645648	-175.6183003538404	0	0.9400000003403366	0	30.84809205714575	-9.652481457056576	0	41.79240462406351	0.7294150630156113	-4.930896302577734	0	0	30.84809205714575	-9.652481457056576	0	41.79240462406351	0.7294150630156113	-4.930896302577734	0	0	-0.007424536803223066	0.07189504528214452	-2.269538605713449	1.125160129497562	2.351637296975179	-89.94718973423564	4.043295451447963	-24.91309460402855	0	0	0	-6.210065414304371	0	56.11514941561853	24.91288423700175	0	0
4.57	-0.001018962021469851	0.007486277762348376	-175.6152000463902	0	0.9400000003403366	0	30.85160957462045	-9.65277363580571	0	41.79616532239825	0.7294806995837266	-4.930972133653202	0	0	30.85160957462045	-9.65277363580571	0	41.79616532239825	0.7294806995837266	-4.930972133653202	0	0	-0.003695371415728932	0.06902696310125767	-2.732266388324517	1.076220421419779	2.475115998523534	-89.95613141226278	4.31861204518998	-24.90860118538323	0	0	0	-6.211149396782173	0	56.11998211948754	24.90839081837566	0	0
4.58	0.0006265895157504314	-0.002235915022263097	-175.629843484271	0	0.9400000003403366	0	30.85361974722357	-9.652940300481008	0	41.79831649261954	0.7295182445868591	-4.931015366452375	0	0	30.85361974722357	-9.652940300481008	0	41.79831649261954	0.7295182445868591	-4.931015366452375	0	0	0.004829096993705989	0.06342075656049813	-3.092098061736733	1.101131199583329	2.44648532075913	-89.96155416761529	4.391318049643267	-24.90603238043434	0	0	0	-6.211769444829994	0	56.12274365245048	24.90582201343776	0	0
4.59	0.004164541711588745	0.006374334639891883	-175.6137356703161	0	0.9400000003403366	0	30.85667585646543	-9.65319387751962	0	41.80158446253014	0.7295752814216552	-4.931081150226934	0	0	30.85667585646543	-9.65319387751962	0	41.80158446253014	0.7295752814216552	-4.931081150226934	0	0	0.005532999000305332	0.09495191899641885	-3.536857136021568	1.197753932708828	2.519350514702312	-89.96610679663489	4.784023746244544	-24.90212785397526	0	0	0	-6.212711559607222	0	56.12694223689255	24.90191748699538	0	0
4.6	-0.001737902550313426	0.004364711681474231	-175.646235621677	0	0.9400000003403366	0	30.85759680744859	-9.6532698602756	0	41.80257273488646	0.7295925300281794	-4.931100834295566	0	0	30.85759680744859	-9.6532698602756	0	41.80257273488646	0.7295925300281794	-4.931100834295566	0	0	0.009618719470084068	0.08232126779563545	-3.849572027354478	1.207780247789542	2.488322960826351	-89.96937905818206	4.772699762494552	-24.90094977128491	0	0	0	-6.212996381070492	0	56.1282071284224	24.90073940431007	0	0
